<svg width="65" height="73" viewBox="0 0 65 73" fill="none" xmlns="http://www.w3.org/2000/svg">
<path d="M64.1406 54.0781C64.1406 46.8137 59.391 40.6461 52.8367 38.4945C55.4043 36.8211 57.1094 33.9277 57.1094 30.6406C57.1094 25.4715 52.9035 21.2656 47.7344 21.2656C47.2387 21.2656 46.7559 21.316 46.2812 21.3898C46.3469 21.2 46.4301 21.0148 46.4875 20.8227L48.9062 20.2531V12.9617L46.4898 12.3922C46.2062 11.4406 45.8254 10.5219 45.3508 9.64648L46.6574 7.53359L41.5445 2.41953L39.4316 3.72734C38.5574 3.25508 37.6387 2.87305 36.6848 2.58828L36.1164 0.171875H28.8836L28.3152 2.58828C27.3625 2.87305 26.4426 3.25391 25.5684 3.72734L23.4555 2.41953L18.3426 7.53359L19.6492 9.64648C19.1758 10.5219 18.7949 11.4406 18.5102 12.3922L16.0938 12.9629V20.2555L18.5113 20.825C18.5688 21.016 18.652 21.2012 18.7176 21.391C18.2441 21.316 17.7613 21.2656 17.2656 21.2656C12.0965 21.2656 7.89062 25.4715 7.89062 30.6406C7.89062 33.9277 9.5957 36.8211 12.1633 38.4945C5.60898 40.6461 0.859375 46.8137 0.859375 54.0781V58.7656H19.0551C17.1941 61.4258 16.0938 64.6555 16.0938 68.1406V72.8281H48.9062V68.1406C48.9062 64.6555 47.8059 61.4258 45.9449 58.7656H64.1406V54.0781ZM50.0781 41.1875C50.0781 43.093 49.0047 44.7031 47.7344 44.7031C46.4641 44.7031 45.3906 43.093 45.3906 41.1875C45.3906 40.8547 45.4375 40.5254 45.5078 40.1984C46.2414 40.0812 46.9844 40.0156 47.7344 40.0156C48.4949 40.0156 49.2367 40.093 49.9645 40.2102C50.0324 40.5336 50.0781 40.8594 50.0781 41.1875ZM32.5 51.7344C28.6223 51.7344 25.4688 48.5809 25.4688 44.7031C25.4688 40.8254 28.6223 37.6719 32.5 37.6719C36.3777 37.6719 39.5312 40.8254 39.5312 44.7031C39.5312 48.5809 36.3777 51.7344 32.5 51.7344ZM23.3781 41.4195C23.4777 41.4676 23.5785 41.5121 23.677 41.5625C23.3266 42.5469 23.125 43.6004 23.125 44.7031C23.125 45.1707 23.1707 45.6277 23.2375 46.0777L21.6766 49.5125L18.8359 45.9629L23.3781 41.4195ZM32.5 35.3281C29.268 35.3281 26.4133 36.9723 24.727 39.4684C23.9676 39.0805 23.1789 38.7582 22.3703 38.4934C24.9367 36.8187 26.6406 33.9266 26.6406 30.6406C26.6406 30.4227 26.623 30.2094 26.6078 29.9961C27.1633 30.241 27.7328 30.4531 28.3152 30.6277L28.8836 33.0441H36.1164L36.6848 30.6277C37.2672 30.4531 37.8367 30.241 38.3922 29.9961C38.377 30.2094 38.3594 30.4227 38.3594 30.6406C38.3594 33.9277 40.0633 36.8187 42.6297 38.4934C41.8223 38.757 41.0336 39.0816 40.2742 39.4695C38.5879 36.9734 35.732 35.3281 32.5 35.3281ZM54.7656 30.6406C54.7656 34.5184 51.6121 37.6719 47.7344 37.6719C43.8566 37.6719 40.7031 34.5184 40.7031 30.6406C40.7031 26.7629 43.8566 23.6094 47.7344 23.6094C51.6121 23.6094 54.7656 26.7629 54.7656 30.6406ZM20.5973 19.5641L20.4262 18.8668L18.4375 18.398V14.8168L20.425 14.3492L20.5961 13.652C20.8914 12.4473 21.3672 11.2953 22.0141 10.2312L22.3855 9.61836L21.3098 7.88047L23.8 5.39023L25.5379 6.46602L26.1508 6.09336C27.2125 5.44883 28.3645 4.9707 29.5727 4.67539L30.2699 4.5043L30.7398 2.51562H34.2602L34.7277 4.50313L35.425 4.67422C36.6332 4.9707 37.7852 5.44766 38.8469 6.09219L39.4598 6.46484L41.1977 5.38906L43.6879 7.8793L42.6133 9.61836L42.9848 10.2312C43.6316 11.2953 44.1074 12.4473 44.4027 13.652L44.5738 14.3492L46.5625 14.818V18.3992L44.575 18.8668L44.4039 19.5641C44.1672 20.5332 43.7828 21.4777 43.2965 22.3859C41.4367 23.3902 39.9531 25.0051 39.1152 26.9598L38.848 27.1215C37.7863 27.766 36.6344 28.2441 35.4262 28.5395L34.7289 28.7105L34.2613 30.698H30.741L30.2734 28.7094L29.5762 28.5383C28.3703 28.243 27.2184 27.766 26.1543 27.1203L25.8871 26.9586C25.0492 25.0027 23.5656 23.3879 21.7059 22.3836C21.2184 21.4777 20.834 20.5332 20.5973 19.5641ZM10.2344 30.6406C10.2344 26.7629 13.3879 23.6094 17.2656 23.6094C21.1434 23.6094 24.2969 26.7629 24.2969 30.6406C24.2969 34.5184 21.1434 37.6719 17.2656 37.6719C13.3879 37.6719 10.2344 34.5184 10.2344 30.6406ZM20.9699 40.5137L17.2656 44.218L13.5719 40.5242C14.7508 40.202 15.9859 40.0156 17.2656 40.0156C18.5254 40.0156 19.7699 40.1867 20.9699 40.5137ZM15.6953 45.9617L12.8547 49.5113L9.58281 42.3137C10.0867 41.9832 10.6164 41.6926 11.1625 41.4277L15.6953 45.9617ZM3.20312 54.0781C3.20312 50.0258 4.93633 46.3789 7.68906 43.8102L12.3016 53.9574L17.2656 47.7512L22.2297 53.9574L24.3426 49.3086C25.0867 50.6211 26.1367 51.7367 27.3965 52.5582C24.9824 53.3504 22.8156 54.6852 21.0391 56.423H9.0625V49.3918H6.71875V56.423H3.20312V54.0781ZM32.5 54.0781C34.5367 54.0781 36.468 54.5223 38.2176 55.3051L32.5 68.6738L26.7824 55.3039C28.532 54.5223 30.4633 54.0781 32.5 54.0781ZM18.4375 68.1406C18.4375 63.2633 20.9348 58.9613 24.7164 56.4383L30.7234 70.4844H24.2969V63.4531H21.9531V70.4844H18.4375V68.1406ZM46.5625 70.4844H43.0469V63.4531H40.7031V70.4844H34.2766L40.2836 56.4383C44.0652 58.9613 46.5625 63.2633 46.5625 68.1406V70.4844ZM61.7969 56.4219H58.2812V49.3906H55.9375V56.4219H43.9598C42.1832 54.684 40.0152 53.3492 37.6023 52.557C40.1699 50.8836 41.875 47.9902 41.875 44.7031C41.875 43.6016 41.6734 42.548 41.323 41.5648C41.8914 41.273 42.4785 41.0199 43.0797 40.8102C43.0727 40.9355 43.0469 41.0609 43.0469 41.1875C43.0469 44.4184 45.1492 47.0469 47.7344 47.0469C50.3195 47.0469 52.4219 44.4184 52.4219 41.1875C52.4219 41.0656 52.3973 40.9461 52.3902 40.8242C57.8594 42.752 61.7969 47.9574 61.7969 54.0781V56.4219Z" fill="#D72DF3"/>
</svg>
